<svg width="512" height="512" version="1.1" viewBox="0 0 135.47 135.47" xmlns="http://www.w3.org/2000/svg" xmlns:xlink="http://www.w3.org/1999/xlink"><defs><linearGradient id="c" x1="15.688" x2="15.688" y1="292.29" y2="220.32" gradientUnits="userSpaceOnUse"><stop stop-color="#4a88f1" offset="0"/><stop stop-color="#622e78" offset="1"/></linearGradient><linearGradient id="a" x1="254.05" x2="254.05" y1="349.89" y2="64.851" gradientUnits="userSpaceOnUse"><stop stop-color="#4a88f1" offset="0"/><stop stop-color="#622e78" offset="1"/></linearGradient><linearGradient id="b" x1="67.218" x2="67.218" y1="250.03" y2="178.69" gradientUnits="userSpaceOnUse"><stop stop-color="#4a88f1" offset="0"/><stop stop-color="#622e78" offset="1"/></linearGradient><linearGradient id="d" x1="68.271" x2="68.271" y1="250.29" y2="157.13" gradientUnits="userSpaceOnUse"><stop stop-color="#2656a8" offset="0"/><stop stop-color="#8c42ab" offset="1"/></linearGradient></defs><g transform="translate(0 -161.53)"><g transform="matrix(.94651 0 0 .94651 3.6224 11.723)"><g shape-rendering="auto"><path d="m3.7378 222.94c-1.0487 0.0157-1.8393 0.95826-1.6722 1.9937 1.5016 9.2924 5.4178 14.907 10.148 19.261 4.7304 4.3543 10.153 7.5562 15.143 12.545 11.404 11.404 27.431 15.172 40.377 7.6057 12.946 7.5658 28.973 3.7981 40.377-7.6057 4.9893-4.9893 10.412-8.1912 15.143-12.545 4.7306-4.3543 8.6472-9.9684 10.149-19.261 0.26506-1.6466-1.7334-2.6689-2.9135-1.4903-9.8848 9.8848-14.753 11.751-18.415 12.131-1.831 0.18953-3.5214-0.0312-5.5888 0.0672s-4.4439 0.5987-7.228 2.2061c-0.03017 0.0174-0.05982 0.0356-0.08888 0.0548l-5.6637 3.7455c-3.6089 2.3864-7.2944 3.466-10.501 2.6789 0.31976-1.1228 0.60409-2.254 0.81029-3.3988 0.18987-1.0548-0.62068-2.0245-1.6924-2.0247h-22.276c-0.0034 1.6e-4 -0.0069 3.3e-4 -0.01033 5.1e-4h-6.4869c-1.0717 2.2e-4 -1.8823 0.96991-1.6924 2.0247 0.20618 1.1447 0.49058 2.2753 0.81029 3.3977-3.2069 0.78747-6.8924-0.29227-10.502-2.6789l-5.6637-3.745c-0.02906-0.0192-0.05871-0.0374-0.08888-0.0548-2.784-1.6074-5.1606-2.1077-7.228-2.2061-2.0674-0.0984-3.7579 0.12235-5.5888-0.0672-3.6619-0.37905-8.5301-2.2457-18.415-12.131-0.32875-0.32861-0.7765-0.51017-1.2413-0.50333zm54.633 16.801c-0.0069 0.0187-0.11621 0.31371-0.17467 0.47129 0.0591-0.16216 0.17106-0.46924 0.17105-0.46922zm-0.22324 0.6041c-2.86e-4 5e-3 -0.02061 0.36586-0.02067 0.3669 0 2e-5 0.02016-0.36589 0.02015-0.36587l5.16e-4 -1e-3z" color="#000000" color-rendering="auto" dominant-baseline="auto" image-rendering="auto" opacity=".3" solid-color="#000000" style="font-feature-settings:normal;font-variant-alternates:normal;font-variant-caps:normal;font-variant-ligatures:normal;font-variant-numeric:normal;font-variant-position:normal;isolation:auto;mix-blend-mode:normal;paint-order:normal;shape-padding:0;text-decoration-color:#000000;text-decoration-line:none;text-decoration-style:solid;text-indent:0;text-orientation:mixed;text-transform:none;white-space:normal"/><path transform="matrix(.26458 0 0 .26458 0 161.53)" d="m14.223 228.6c10.93 67.642 54.726 77.613 93.768 116.65 42.464 42.464 101.32 55.451 148.01 25.877 46.691 29.573 105.55 16.587 148.01-25.877 39.042-39.042 82.839-49.012 93.77-116.65-75.682 75.682-80.596 33.076-119.39 55.473l-21.406 14.156c-16.798 11.108-35.305 15.967-51.277 8.8242 2.0068-5.9337 3.5644-11.992 4.668-18.119h-84.191c-2.8e-4 4.6e-4 2.8e-4 1e-3 0 2e-3h-24.557c1.1035 6.1266 2.6616 12.182 4.668 18.115-15.973 7.144-34.48 2.2842-51.279-8.8242l-21.406-14.154c-38.792-22.397-43.705 20.209-119.39-55.473z" color="#000000" color-rendering="auto" dominant-baseline="auto" fill="url(#a)" image-rendering="auto" solid-color="#000000" stroke="#2656a8" stroke-linecap="round" stroke-linejoin="round" stroke-width="13" style="font-feature-settings:normal;font-variant-alternates:normal;font-variant-caps:normal;font-variant-ligatures:normal;font-variant-numeric:normal;font-variant-position:normal;isolation:auto;mix-blend-mode:normal;paint-order:normal;shape-padding:0;text-decoration-color:#000000;text-decoration-line:none;text-decoration-style:solid;text-indent:0;text-orientation:mixed;text-transform:none;white-space:normal"/><path transform="matrix(.26458 0 0 .26458 0 161.53)" d="m503.22 225.04c-6.2689 31.922-20.443 51.8-37.385 67.395-17.879 16.457-38.375 28.559-57.232 47.416-43.101 43.101-103.68 57.341-152.61 28.746-48.929 28.596-109.5 14.355-152.61-28.746-18.857-18.857-39.354-30.959-57.232-47.416-16.939-15.592-31.109-35.466-37.379-67.379-0.84886 1.2993-1.2468 2.9068-0.97656 4.582 5.6753 35.121 20.477 56.34 38.355 72.797 17.879 16.457 38.375 28.559 57.232 47.416 43.101 43.101 103.68 57.342 152.61 28.746 48.929 28.595 109.5 14.355 152.61-28.746 18.857-18.857 39.353-30.959 57.232-47.416 17.879-16.457 32.682-37.676 38.357-72.797 0.28557-1.774-0.13774-3.3451-0.97265-4.5976zm-306.92 60.182c-0.9483 1.3574-1.3924 3.0782-1.0703 4.8672 0.20072 1.1144 0.42103 2.2263 0.6582 3.334 0.80866-0.13497 1.6106-0.29729 2.4043-0.49219-0.72808-2.5561-1.3965-5.1255-1.9922-7.709zm119.4 0c-0.59565 2.5842-1.264 5.1538-1.9922 7.7109 0.79309 0.19466 1.5944 0.35736 2.4024 0.49219 0.23749-1.1093 0.45917-2.222 0.66015-3.3379 0.32193-1.7884-0.12263-3.5081-1.0703-4.8652z" color="#000000" color-rendering="auto" dominant-baseline="auto" image-rendering="auto" opacity=".3" solid-color="#000000" style="font-feature-settings:normal;font-variant-alternates:normal;font-variant-caps:normal;font-variant-ligatures:normal;font-variant-numeric:normal;font-variant-position:normal;isolation:auto;mix-blend-mode:normal;paint-order:normal;shape-padding:0;text-decoration-color:#000000;text-decoration-line:none;text-decoration-style:solid;text-indent:0;text-orientation:mixed;text-transform:none;white-space:normal"/><path d="m81.021 244.05c-0.74795 7e-3 -1.3508 0.61473-1.3508 1.3627v12.474c1.73e-4 0.7626 0.62608 1.3766 1.3885 1.3622 1.5656-0.0294 3.3646 0.61074 5.1082 1.7637l3.5006 2.3146c0.02298 0.0153 0.04641 0.03 0.07028 0.0439 1.7587 1.0154 3.2921 1.3407 4.6028 1.403 1.3107 0.0623 2.345-0.0733 3.4375 0.0398 2.185 0.22611 5.1128 1.3244 11.2 7.4114 0.93512 0.93525 2.5203 0.12423 2.3089-1.1813-0.93772-5.803-3.4098-9.3562-6.365-12.076-2.9552-2.7201-6.2969-4.6923-9.3498-7.7453-4.1425-4.1425-9.2335-6.6921-14.415-7.1665-0.04518-4e-3 -0.09053-6e-3 -0.13591-6e-3zm-26.629 5.1e-4c-0.02795 8.1e-4 -0.05587 2e-3 -0.08371 5e-3 -5.1816 0.4744-10.272 3.024-14.415 7.1665-3.053 3.053-6.3946 5.0251-9.3498 7.7453-2.9552 2.7202-5.4273 6.2737-6.365 12.077-0.21136 1.3056 1.3738 2.1166 2.3089 1.1813 6.087-6.087 9.0148-7.1852 11.2-7.4114 1.0925-0.11311 2.1273 0.0221 3.438-0.0403s2.8436-0.38766 4.6023-1.403c0.02404-0.0139 0.04765-0.0285 0.0708-0.0439l3.4995-2.3151c1.7435-1.1529 3.5424-1.7926 5.1082-1.7632 0.76246 0.0144 1.3884-0.59959 1.3885-1.3622v-12.474c3e-5 -0.76842-0.63493-1.3849-1.403-1.3622z" color="#000000" color-rendering="auto" dominant-baseline="auto" image-rendering="auto" opacity=".3" solid-color="#000000" style="font-feature-settings:normal;font-variant-alternates:normal;font-variant-caps:normal;font-variant-ligatures:normal;font-variant-numeric:normal;font-variant-position:normal;isolation:auto;mix-blend-mode:normal;paint-order:normal;shape-padding:0;text-decoration-color:#000000;text-decoration-line:none;text-decoration-style:solid;text-indent:0;text-orientation:mixed;text-transform:none;white-space:normal"/><path transform="matrix(.26458 0 0 .26458 0 161.53)" d="m205.73 307.04c-18.215 1.6676-36.396 10.689-51.307 25.6-24.129 24.129-51.198 30.292-57.953 72.098 46.775-46.774 49.812-20.443 73.787-34.285l13.229-8.75c7.1986-4.76 14.904-7.6556 22.244-7.5176zm100.54 0v47.145c7.3397-0.13796 15.046 2.7595 22.244 7.5195l13.23 8.748c23.975 13.842 27.013-12.491 73.787 34.283-6.7554-41.806-33.824-47.966-57.953-72.096-14.911-14.911-33.094-23.932-51.309-25.6z" color="#000000" color-rendering="auto" dominant-baseline="auto" fill="url(#a)" image-rendering="auto" solid-color="#000000" stroke="#2656a8" stroke-linecap="round" stroke-linejoin="round" stroke-width="10.3" style="font-feature-settings:normal;font-variant-alternates:normal;font-variant-caps:normal;font-variant-ligatures:normal;font-variant-numeric:normal;font-variant-position:normal;isolation:auto;mix-blend-mode:normal;paint-order:normal;shape-padding:0;text-decoration-color:#000000;text-decoration-line:none;text-decoration-style:solid;text-indent:0;text-orientation:mixed;text-transform:none;white-space:normal"/><path transform="matrix(.26458 0 0 .26458 0 161.53)" d="m210.88 344.19c-6.5e-4 2.8823-2.3663 5.2029-5.248 5.1484-5.9182-0.11126-12.717 2.3067-19.307 6.6641l-13.227 8.75c-0.0875 0.0582-0.17672 0.11348-0.26758 0.16601-6.6469 3.8376-12.441 5.0669-17.395 5.3027-4.9539 0.23584-8.8649-0.27516-12.994 0.15234-8.2585 0.85501-19.324 5.0056-42.33 28.012-2.35 2.3504-5.776 1.7726-7.5801-0.32227-0.42456 1.8897-0.81825 3.8262-1.1465 5.8574-0.79885 4.9344 5.1923 7.9996 8.7266 4.4648 23.006-23.006 34.072-27.157 42.33-28.012 4.1292-0.4275 8.0403 0.0835 12.994-0.15234 4.9539-0.23585 10.748-1.4652 17.395-5.3027 0.0909-0.0525 0.18008-0.10781 0.26758-0.16601l13.227-8.75c6.5896-4.3574 13.388-6.7753 19.307-6.6641 2.8818 0.0544 5.2474-2.2662 5.248-5.1484zm90.236 0v10c6.5e-4 2.8823 2.3663 5.203 5.248 5.1484 5.9173-0.11111 12.717 2.3083 19.307 6.666l13.23 8.748c0.0869 0.0578 0.17541 0.11348 0.26563 0.16601 6.6469 3.8376 12.443 5.0671 17.396 5.3027 4.9539 0.23546 8.863-0.27708 12.992 0.15039 8.2584 0.85459 19.324 5.0056 42.33 28.012 3.5343 3.5348 9.5254 0.46951 8.7266-4.4648-0.32826-2.0314-0.72384-3.9657-1.1484-5.8555-1.8045 2.0935-5.2287 2.6701-7.5781 0.32032-23.006-23.006-34.072-27.157-42.33-28.012-4.1292-0.42747-8.0382 0.0851-12.992-0.15039-4.9539-0.23562-10.75-1.4651-17.396-5.3027-0.0902-0.0525-0.17877-0.10819-0.26563-0.16601l-13.23-8.748c-6.5901-4.3577-13.389-6.7771-19.307-6.666-2.8817 0.0546-5.2474-2.2662-5.248-5.1484z" color="#000000" color-rendering="auto" dominant-baseline="auto" image-rendering="auto" opacity=".2" solid-color="#000000" style="font-feature-settings:normal;font-variant-alternates:normal;font-variant-caps:normal;font-variant-ligatures:normal;font-variant-numeric:normal;font-variant-position:normal;isolation:auto;mix-blend-mode:normal;paint-order:normal;shape-padding:0;text-decoration-color:#000000;text-decoration-line:none;text-decoration-style:solid;text-indent:0;text-orientation:mixed;text-transform:none;white-space:normal"/></g><g transform="matrix(1.0622 0 0 1.0622 50.555 -59.181)" fill="#367bf0"><path d="m16.173 233.27c4.0463 0.064 8.2021 0.92798 11.617 3.1865 6.3201 4.1048 8.2323 12.205 8.0532 19.302 0.01895 5.9674-1.3991 11.787-2.963 17.499-0.92919 3.9273 2.38 6.8534 4.0639 9.9964 1.5494 3.0757-0.30029 6.3992-2.7991 8.2952-5.1359 4.1617-11.475 6.8444-17.972 7.9793-6.4974-1.135-12.836-3.8176-17.972-7.9793-2.4988-1.8961-4.3484-5.2195-2.7991-8.2952 1.6838-3.143 4.9931-6.0691 4.0639-9.9964-1.5639-5.7115-2.9819-11.532-2.963-17.499-0.17902-7.0971 1.7331-15.197 8.0532-19.302 3.4149-2.2585 7.5708-3.1224 11.617-3.1865z" fill="url(#c)"/></g><path transform="translate(-.88668)" d="m80.008 209.75c-1.9827-0.1887-3.9325 0.65168-5.4531 1.8688-0.75574 0.60426-1.6989 1.5797-2.7426 1.1067-0.94789-0.31083-2.544-0.4004-2.7221 0.89685-0.23323 1.0991 0.73162 1.9573 1.7132 2.1921 1.0848 0.30265 2.25 0.4858 3.0826 1.3251 1.3088 1.1792 3.3586 1.6247 4.9119 0.65296 1.4704-0.80965 2.0197-2.4862 2.6071-3.9452 0.48412-1.037 2.2647-1.3535 1.8744-2.8406-0.43458-1.3662-2.1277-1.2683-3.2714-1.2566z" fill="#622e78" stroke-width=".19117"/><path transform="translate(-.88668)" d="m80.779 212.06c0.05733 0.013 0.09955 0.032 0.12456 0.0645 0.18624 0.23384-0.41937 1.5362-1.346 2.8944-1.8195 2.6669-3.3046 3.1488-4.973 1.6126-0.86975-0.80078-0.88675-1.0378-0.12461-1.7699 1.1814-1.1348 5.4579-2.99 6.3191-2.8018z" opacity=".1" stroke-width=".56365"/><path transform="translate(-.88668)" d="m80.779 211.01c0.05733 0.013 0.09955 0.032 0.12456 0.0645 0.18624 0.23384-0.41937 1.5362-1.346 2.8944-1.8195 2.6669-3.3046 3.1488-4.973 1.6126-0.86975-0.80078-0.88675-1.0378-0.12461-1.7699 1.1814-1.1348 5.4579-2.99 6.3191-2.8018z" fill="#b8174c" stroke-width=".56365"/><path transform="translate(-.88668)" d="m68.154 187.05c-7.0996 0.0794-14.535 3.0099-18.276 9.33-3.9173 5.4168-4.7868 12.293-4.4453 18.805 0.0726 5.1653 1.2154 10.23 2.6769 15.155 1.0153 4.191-3.1633 6.6956-4.3327 10.22-1.5136 5.2969 2.4941 10.174 6.6847 12.884 5.4102 3.5858 11.583 6.2425 18.023 7.1764 0.0449 3e-4 0.08926-2e-3 0.13411-3e-3 0.04484 1e-3 0.08921 3e-3 0.13411 3e-3 6.4407-0.93397 12.613-3.5907 18.023-7.1764 4.1906-2.7106 8.1983-7.5873 6.6847-12.884-1.1694-3.5243-5.348-6.0289-4.3327-10.22 1.4614-4.9242 2.6043-9.9893 2.6769-15.155 0.34142-6.5124-0.52802-13.389-4.4453-18.805-3.7401-6.3201-11.176-9.2506-18.276-9.33v-6e-4c-0.1554-1e-3 -0.31048-3.1e-4 -0.46552 6e-4 -0.15503-9.9e-4 -0.31012-2e-3 -0.46552-6e-4zm0.46552 3.6144c4.0463 0.064 8.2021 0.92798 11.617 3.1865 6.3201 4.1048 8.2323 12.205 8.0532 19.302 0.01895 5.9674-1.3991 11.787-2.963 17.499-0.92919 3.9273 2.38 6.8534 4.0639 9.9964 1.5494 3.0757-0.30029 6.3992-2.7991 8.2952-5.1359 4.1617-11.475 6.8444-17.972 7.9793-6.4974-1.135-12.836-3.8176-17.972-7.9793-2.4988-1.8961-4.3484-5.2195-2.7991-8.2952 1.6838-3.143 4.9931-6.0691 4.0639-9.9964-1.5639-5.7115-2.9819-11.532-2.963-17.499-0.17902-7.0971 1.7331-15.197 8.0532-19.302 3.4149-2.2585 7.5708-3.1224 11.617-3.1865z" fill="url(#d)"/><path transform="matrix(.26458 0 0 .26458 0 161.53)" d="m168.19 188.36c-0.14361 4.8182-0.0721 9.6333 0.17774 14.398 0.27362 19.467 4.5711 38.558 10.072 57.119 0.77153-3.0358 0.9085-6.277 0.0449-9.8418-5.5235-18.611-9.8428-37.755-10.117-57.277-0.0766-1.4618-0.13484-2.9284-0.17774-4.3984zm175.62 0c-0.0429 1.47-0.1011 2.9367-0.17774 4.3984-0.27438 19.522-4.5936 38.666-10.117 57.277-0.86357 3.5648-0.7266 6.806 0.0449 9.8418 5.5012-18.562 9.7986-37.652 10.072-57.119 0.24982-4.7652 0.32135-9.5802 0.17774-14.398zm-150.92 73.049c-2.2375 10.059-10.577 18.589-15.398 27.588-2.3475 4.6602-2.6257 9.4702-1.5137 14.023 0.34928-1.347 0.84271-2.6915 1.5137-4.0234 6.3363-11.827 18.756-22.842 15.398-37.588zm126.21 0c-3.3573 14.745 9.0622 25.761 15.398 37.588 0.67096 1.3319 1.1644 2.6764 1.5137 4.0234 1.112-4.5532 0.83386-9.3633-1.5137-14.023-4.821-8.9984-13.161-17.529-15.398-27.588zm-157.83 40.98c-2.9967 18.561 11.245 35.365 26.096 44.971 20.448 13.553 43.776 23.593 68.119 27.123 0.1697 1e-3 0.3383-8e-3 0.50781-0.0117 0.16947 4e-3 0.33811 0.0117 0.50781 0.0117 24.343-3.53 47.671-13.57 68.119-27.123 14.851-9.606 29.092-26.409 26.096-44.971-2.2605 14.481-13.969 27.125-26.096 34.969-20.448 13.553-43.776 23.595-68.119 27.125-0.1697 0-0.33834-8e-3 -0.50781-0.0117-0.16951 4e-3 -0.33811 0.0129-0.50781 0.0117-24.343-3.53-47.671-13.572-68.119-27.125-12.127-7.8439-23.835-20.488-26.096-34.969z" opacity=".3"/><path transform="translate(-.88668)" d="m55.496 209.76c1.9827-0.1888 3.9325 0.65173 5.4531 1.8688 0.75574 0.60426 1.6989 1.5797 2.7426 1.1067 0.94789-0.31083 2.544-0.4004 2.7221 0.89685 0.23323 1.0991-0.73162 1.9573-1.7132 2.1921-1.0848 0.30265-2.25 0.4858-3.0826 1.3251-1.3088 1.1792-3.3586 1.6247-4.9119 0.65296-1.4704-0.80965-2.0197-2.4862-2.6071-3.9452-0.48412-1.037-2.2647-1.3535-1.8744-2.8406 0.43458-1.3662 2.1277-1.2683 3.2714-1.2566z" fill="#622e78" stroke-width=".19117"/><path d="m67.268 186.98v1e-3c-7.0996 0.0795-14.535 3.0095-18.275 9.3296-3.6995 5.1156-4.6794 11.533-4.4895 17.716 0.1671-5.2851 1.3455-10.573 4.4895-14.92 3.7401-6.3201 11.176-9.2501 18.275-9.3296v-1e-3c0.1554-1e-3 0.31068 9e-5 0.46571 1e-3 0.15503-9.2e-4 0.31032-2e-3 0.46571-1e-3v1e-3c7.0996 0.0793 14.535 3.0095 18.275 9.3296 3.1441 4.3476 4.3224 9.6352 4.4895 14.92 0.18987-6.1831-0.79006-12.6-4.4895-17.716-3.7401-6.3201-11.176-9.2502-18.275-9.3296v-1e-3c-0.1554-9.9e-4 -0.31068 1.8e-4 -0.46571 1e-3 -0.15503-9.9e-4 -0.31031-2e-3 -0.46571-1e-3z" fill="#fff" opacity=".1"/><path transform="translate(-.88668)" d="m54.724 212.08c-0.05733 0.013-0.09955 0.032-0.12456 0.0645-0.18624 0.23384 0.41937 1.5362 1.346 2.8944 1.8195 2.6669 3.3046 3.1488 4.973 1.6126 0.86975-0.80078 0.88675-1.0378 0.12461-1.7699-1.1814-1.1348-5.4579-2.99-6.3191-2.8018z" opacity=".1" stroke-width=".56365"/><path transform="translate(-.88668)" d="m54.724 211.02c-0.05733 0.013-0.09955 0.032-0.12456 0.0645-0.18624 0.23384 0.41937 1.5362 1.346 2.8944 1.8195 2.6669 3.3046 3.1488 4.973 1.6126 0.86975-0.80078 0.88675-1.0378 0.12461-1.7699-1.1814-1.1348-5.4579-2.99-6.3191-2.8018z" fill="#b8174c" stroke-width=".56365"/><g><path transform="matrix(.26458 0 0 .26458 0 161.53)" d="m301.2 186.94c-4.4739 0.20012-18.943 6.614-23.129 10.635-2.3083 2.2171-2.689 3.2476-1.0723 5.1211 0.29831-0.34378 0.64103-0.70689 1.0723-1.1211 4.186-4.0208 18.655-10.434 23.129-10.635 0.1275-6e-3 0.2118 0.0151 0.32227 0.0195 0.86992-1.9023 1.245-3.3003 0.90234-3.7305-0.0945-0.12284-0.25402-0.19502-0.4707-0.24414-0.20342-0.0444-0.45565-0.0583-0.75391-0.0449zm-96.965 0.0391c-0.29826-0.0134-0.55244 4.7e-4 -0.75586 0.0449-0.21668 0.0491-0.37619 0.1213-0.4707 0.24414-0.34262 0.43018 0.0339 1.8281 0.90429 3.7305 0.11063-5e-3 0.1951-0.026 0.32227-0.0195 4.4739 0.20008 18.941 6.614 23.127 10.635 0.43124 0.41421 0.77395 0.77732 1.0723 1.1211 1.6167-1.8735 1.236-2.904-1.0723-5.1211-4.186-4.0208-18.653-10.435-23.127-10.635z" opacity=".3" stroke-width="2.1303"/><path transform="matrix(.26458 0 0 .26458 0 161.53)" d="m396.98 153.44c-3.2707 0.0712-6.4286 2.5734-6.4238 6.5195 0 41.064-6.1702 54.642-12.777 62.775-3.3036 4.0665-7.2463 7.099-11.457 11.73-4.2107 4.6315-8.2916 10.899-10.799 20.256-0.0333 0.12699-0.0642 0.25408-0.0898 0.38281l-4 19.615v8e-3c-1.8355 9.0014-5.2911 16.716-10.025 21.9-4.7343 5.1839-10.495 8.1289-18.846 8.1289-7.4759 0-13.987-2.3737-18.916-6.4844l-47.654 47.654-47.652-47.652c-4.9268 4.1091-11.436 6.4824-18.91 6.4824-8.3508 0-14.111-2.945-18.846-8.1289-4.7343-5.1839-8.1879-12.899-10.023-21.9v-8e-3l-4.002-19.615c-0.028-0.12888-0.0598-0.25597-0.0957-0.38281-2.5072-9.357-6.5822-15.624-10.793-20.256-4.2107-4.6315-8.1534-7.6639-11.457-11.73-6.6072-8.133-12.777-21.711-12.777-62.775-9.4e-4 -3.6658-3.0311-6.6059-6.6953-6.4961-2.0184 0.0582-3.8944 1.0517-5.0781 2.6875-16.411 22.737-20.06 43.064-19.268 62.207 0.79279 19.143 5.418 37.064 5.418 57.66 0 28.232 8.7346 54.264 24.93 73.398 16.195 19.135 40.015 31.158 68.688 31.158 25.294 0 48.408-9.4745 66.562-24.648 18.155 15.175 41.275 24.648 66.57 24.648 28.672 0 52.494-12.023 68.689-31.158 16.195-19.135 24.928-45.166 24.928-73.398 0-20.596 4.6252-38.517 5.418-57.66 0.79276-19.143-2.8545-39.47-19.266-62.207-1.3845-1.9207-3.3891-2.7537-5.3516-2.7109z" color="#000000" color-rendering="auto" dominant-baseline="auto" image-rendering="auto" opacity=".3" shape-rendering="auto" solid-color="#000000" style="font-feature-settings:normal;font-variant-alternates:normal;font-variant-caps:normal;font-variant-ligatures:normal;font-variant-numeric:normal;font-variant-position:normal;isolation:auto;mix-blend-mode:normal;paint-order:normal;shape-padding:0;text-decoration-color:#000000;text-decoration-line:none;text-decoration-style:solid;text-indent:0;text-orientation:mixed;text-transform:none;white-space:normal"/><path d="m59.443 227.74v4.1801c-1e-6 5.309-4.014 9.3229-9.3229 9.3229-5.309 0-8.2633-4.1214-9.324-9.3229l-1.0583-5.1899c-2.3927-8.9298-9.3276-3.429-9.3276-25.519-8.2764 11.467-3.3398 19.313-3.3398 30.709 0 14.229 8.8213 25.943 23.05 25.943 6.7711 0 12.972-2.6528 17.613-6.967m0 0c4.6408 4.3142 10.842 6.967 17.613 6.967 14.229 0 23.05-11.714 23.05-25.943 0-11.395 4.9366-19.242-3.3398-30.709 0 22.09-6.9349 16.589-9.3276 25.519l-1.0583 5.1899c-1.0607 5.2016-4.015 9.3229-9.324 9.3229s-9.3229-4.014-9.3229-9.3229v-4.1801" color="#000000" color-rendering="auto" dominant-baseline="auto" fill="url(#b)" image-rendering="auto" shape-rendering="auto" solid-color="#000000" stroke="#2656a8" stroke-linecap="round" stroke-linejoin="round" stroke-width="3.4396" style="font-feature-settings:normal;font-variant-alternates:normal;font-variant-caps:normal;font-variant-ligatures:normal;font-variant-numeric:normal;font-variant-position:normal;isolation:auto;mix-blend-mode:normal;paint-order:normal;shape-padding:0;text-decoration-color:#000000;text-decoration-line:none;text-decoration-style:solid;text-indent:0;text-orientation:mixed;text-transform:none;white-space:normal"/></g><g fill="#65cfd4"><ellipse transform="rotate(36.323)" cx="226.39" cy="140.9" rx="1.3774" ry="2.2675" style="paint-order:normal"/><ellipse transform="rotate(28.3)" cx="205" cy="164.47" rx="1.3774" ry="2.2675" style="paint-order:normal"/><ellipse transform="rotate(13.208)" cx="155.64" cy="206.07" rx="1.3774" ry="2.2675" style="paint-order:normal"/><ellipse transform="matrix(-.80569 .59234 .59234 .80569 0 0)" cx="117.24" cy="221.14" rx="1.3774" ry="2.2675" style="paint-order:normal"/><ellipse transform="matrix(-.88047 .47409 .47409 .88047 0 0)" cx="85.73" cy="228.69" rx="1.3774" ry="2.2675" style="paint-order:normal"/><ellipse transform="matrix(-.97355 .22848 .22848 .97355 0 0)" cx="23.756" cy="237.02" rx="1.3774" ry="2.2675" style="paint-order:normal"/><ellipse transform="matrix(-.49853 .86687 .86687 .49853 0 0)" cx="199.81" cy="141.61" rx="1.3774" ry="2.2675" style="paint-order:normal"/><ellipse transform="matrix(-.61464 .78881 .78881 .61464 0 0)" cx="178.02" cy="162.09" rx="1.3774" ry="2.2675" style="paint-order:normal"/><ellipse transform="matrix(-.79883 .60156 .60156 .79883 0 0)" cx="130.78" cy="197.19" rx="1.3774" ry="2.2675" style="paint-order:normal"/><ellipse transform="rotate(60.097)" cx="267.34" cy="24.178" rx="1.3774" ry="2.2675" style="paint-order:normal"/><ellipse transform="rotate(52.074)" cx="261.28" cy="55.231" rx="1.3774" ry="2.2675" style="paint-order:normal"/><ellipse transform="rotate(36.982)" cx="239" cy="115.7" rx="1.3774" ry="2.2675" style="paint-order:normal"/></g><path transform="matrix(.26458 0 0 .26458 0 161.53)" d="m421.58 198.78c-0.84259 18.984-5.3945 36.794-5.3945 57.238 0 28.232-8.7326 54.264-24.928 73.398-16.195 19.135-40.017 31.158-68.689 31.158-25.295 0-48.415-9.473-66.57-24.648-18.155 15.174-41.269 24.648-66.562 24.648-28.672 0-52.492-12.023-68.688-31.158-16.195-19.135-24.93-45.166-24.93-73.398 0-20.439-4.5504-38.245-5.3945-57.225-0.14758 3.2228-0.15402 6.4113-0.02344 9.5645 0.79279 19.143 5.418 37.064 5.418 57.66 0 28.232 8.7346 54.264 24.93 73.398 16.195 19.135 40.015 31.158 68.688 31.158 25.294 0 48.408-9.4745 66.562-24.648 18.155 15.175 41.275 24.648 66.57 24.648 28.672 0 52.494-12.023 68.689-31.158 16.195-19.135 24.928-45.166 24.928-73.398 0-20.596 4.6252-38.517 5.418-57.66 0.13076-3.1576 0.12481-6.3506-0.0234-9.5781z" color="#000000" color-rendering="auto" dominant-baseline="auto" image-rendering="auto" opacity=".3" shape-rendering="auto" solid-color="#000000" style="font-feature-settings:normal;font-variant-alternates:normal;font-variant-caps:normal;font-variant-ligatures:normal;font-variant-numeric:normal;font-variant-position:normal;isolation:auto;mix-blend-mode:normal;paint-order:normal;shape-padding:0;text-decoration-color:#000000;text-decoration-line:none;text-decoration-style:solid;text-indent:0;text-orientation:mixed;text-transform:none;white-space:normal"/></g></g></svg>
